<?xml version="1.0" encoding="utf-8"?>
<!-- Generator: Adobe Illustrator 27.5.0, SVG Export Plug-In . SVG Version: 6.00 Build 0)  -->
<svg version="1.1" id="Layer_1" xmlns="http://www.w3.org/2000/svg" xmlns:xlink="http://www.w3.org/1999/xlink" x="0px" y="0px"
	 viewBox="0 0 1024 1024" style="enable-background:new 0 0 1024 1024;" xml:space="preserve">
<style type="text/css">
	.st0{fill:#F9B21D;}
	.st1{fill:#226DB4;}
</style>
<g>
	<path class="st0" d="M837.5,646.2c7.8,14.6,2.2,32.7-12.3,40.5l-1.9,1c10.5-4.7,17.7-15.2,17.9-27.4V497.6
		c0-49.9-40.6-90.4-90.4-90.4H273.4c-49.9,0-90.4,40.6-90.4,90.4v34.1c0,16.5,13.4,29.9,29.9,29.9s29.9-13.4,29.9-29.9v-34.1
		c0-16.8,13.7-30.5,30.5-30.5h477.4c16.8,0,30.5,13.7,30.5,30.5v144.7l15.8-8.4C811.6,626.1,829.7,631.7,837.5,646.2z"/>
	<path class="st1" d="M988.3,354.6L568.2,21.3C552.3,8.7,532.3,1.7,512,1.7s-40.3,7-56.2,19.6l-420,333.2
		c-21.7,17.3-34.2,43.1-34.2,70.8v102.4c0,33.5,18.3,64.1,47.9,79.8l420.1,223.4c26.6,14.2,58.3,14.2,84.9,0l268.8-143.2l1.9-1
		c14.5-7.8,20.1-25.9,12.3-40.5c-7.8-14.5-25.9-20.1-40.5-12.3l-15.8,8.4L526.3,778.1c-9,4.8-19.7,4.8-28.7,0L77.5,554.7
		c-10-5.4-16.2-15.7-16.2-27V425.3c0-9.4,4.3-18.1,11.6-23.9L493,68.2c11.2-8.9,26.8-8.9,38,0l419.9,333.3
		c7.4,5.8,11.6,14.5,11.6,23.9v506.5c0,16.8-13.7,30.5-30.5,30.5H91.8c-16.8,0-30.5-13.7-30.5-30.5V693.2
		c0-16.5-13.4-29.9-29.9-29.9S1.5,676.7,1.5,693.2v238.7c0,49.9,40.6,90.4,90.4,90.4h840.2c49.8,0,90.3-40.6,90.4-90.4V425.4
		C1022.5,397.6,1010,371.8,988.3,354.6z"/>
</g>
</svg>
